<svg xmlns="http://www.w3.org/2000/svg" width="40" height="40" fill="none" viewBox="0 0 40 40"><path fill="url(#paint0_linear_4069_2091)" d="M6.0743 26.4983L5 9.3384L16.4357 4L6.0743 26.4983Z"/><path fill="url(#paint1_linear_4069_2091)" d="M6.0743 26.4983L5 9.3384L16.4357 4L6.0743 26.4983Z"/><path fill="url(#paint2_linear_4069_2091)" d="M15.8835 22.5882H24.1165L20 12.4786L15.8835 22.5882Z"/><path fill="url(#paint3_linear_4069_2091)" d="M15.8835 22.5882H24.1165L20 12.4786L15.8835 22.5882Z"/><path fill="url(#paint4_linear_4069_2091)" d="M20 36L12.1586 31.5125L13.755 27.6125H26.245L27.8414 31.5125L20 36Z"/><path fill="url(#paint5_linear_4069_2091)" d="M20 36L12.1586 31.5125L13.755 27.6125H26.245L27.8414 31.5125L20 36Z"/><path fill="url(#paint6_linear_4069_2091)" d="M33.9257 26.4983L35 9.3384L23.5643 4L33.9257 26.4983Z"/><path fill="url(#paint7_linear_4069_2091)" d="M33.9257 26.4983L35 9.3384L23.5643 4L33.9257 26.4983Z"/><defs><linearGradient id="paint0_linear_4069_2091" x1="35" x2="19.904" y1="25.837" y2="37.059" gradientUnits="userSpaceOnUse"><stop offset=".01" stop-color="#9225F2"/><stop offset=".989" stop-color="#F41049"/></linearGradient><linearGradient id="paint1_linear_4069_2091" x1="5" x2="27.82" y1="4" y2="26.618" gradientUnits="userSpaceOnUse"><stop stop-color="#F933C2"/><stop offset="1" stop-color="#F932BE" stop-opacity="0"/></linearGradient><linearGradient id="paint2_linear_4069_2091" x1="35" x2="19.904" y1="25.837" y2="37.059" gradientUnits="userSpaceOnUse"><stop offset=".01" stop-color="#9225F2"/><stop offset=".989" stop-color="#F41049"/></linearGradient><linearGradient id="paint3_linear_4069_2091" x1="5" x2="27.82" y1="4" y2="26.618" gradientUnits="userSpaceOnUse"><stop stop-color="#F933C2"/><stop offset="1" stop-color="#F932BE" stop-opacity="0"/></linearGradient><linearGradient id="paint4_linear_4069_2091" x1="35" x2="19.904" y1="25.837" y2="37.059" gradientUnits="userSpaceOnUse"><stop offset=".01" stop-color="#9225F2"/><stop offset=".989" stop-color="#F41049"/></linearGradient><linearGradient id="paint5_linear_4069_2091" x1="5" x2="27.82" y1="4" y2="26.618" gradientUnits="userSpaceOnUse"><stop stop-color="#F933C2"/><stop offset="1" stop-color="#F932BE" stop-opacity="0"/></linearGradient><linearGradient id="paint6_linear_4069_2091" x1="35" x2="19.904" y1="25.837" y2="37.059" gradientUnits="userSpaceOnUse"><stop offset=".01" stop-color="#9225F2"/><stop offset=".989" stop-color="#F41049"/></linearGradient><linearGradient id="paint7_linear_4069_2091" x1="5" x2="27.82" y1="4" y2="26.618" gradientUnits="userSpaceOnUse"><stop stop-color="#F933C2"/><stop offset="1" stop-color="#F932BE" stop-opacity="0"/></linearGradient></defs></svg>