<svg xmlns="http://www.w3.org/2000/svg" width="14" height="14" fill="none" viewBox="0 0 14 14"><path fill="#fff" d="M1 10.5V3.5L7 7V14L1 10.5Z"/><path fill="#CED0D6" d="M2 4.08301V9.9248L7 12.8418V14L1 10.5V3.5L2 4.08301Z"/><path fill="#87E0E1" d="M7 7V14L13 10.5L7 7Z"/><path fill="#1E1F22" d="M13 10.5V3.5L7 7L13 10.5Z"/><path fill="#CED0D6" d="M13 10.5L12 9.91602V4.08301L13 3.5V10.5Z"/><path fill="#F9DB4E" d="M7 0L1 3.5L7 7L13 3.5L7 0Z"/><path fill="#1B46DD" d="M10 8.75L7 10.5V7L10 8.75Z"/><path fill="#B068E9" d="M13 7L10 8.75L7 7L10 5.25L13 7Z"/><path fill="#E94A5D" d="M10 5.25L7 7L4 5.25L7 3.5L10 5.25Z"/></svg>