<svg xmlns="http://www.w3.org/2000/svg" width="16" height="16" fill="none" viewBox="0 0 16 16"><path fill="#1E1F22" d="M15 12L8 8L15 4V12Z"/><path fill="#F9DB4E" d="M15 4L8 8L1 4L8 0L15 4Z"/><path fill="#87E0E1" d="M15 12L8 8V16L15 12Z"/><path fill="#fff" d="M8 8V16L1 12V4L8 8Z"/><path fill="#6C707E" d="M2.00684 4.5752L2 4.58008V11.4189L8 14.8477V16L1 12V4L2.00684 4.5752Z"/><path fill="#6C707E" d="M15 12L14 11.4277V4.57129L15 4V12Z"/><path fill="#E94A5D" d="M11.5 6L8 8L4.5 6L8 4L11.5 6Z"/><path fill="#1B46DD" d="M11.5 10L8 12V8L11.5 10Z"/><path fill="#B068E9" d="M15 8.00024L11.5 10.0002L8 8.00024L11.5 6.00024L15 8.00024Z"/></svg>