<svg width="16" height="16" viewBox="0 0 16 16" fill="none" xmlns="http://www.w3.org/2000/svg">
  <path
    d="M13.9888 13.5327V2.4458C13.9888 1.69378 13.4625 1.32852 13.2386 1.1996C13.0146 1.07068 12.4212 0.823589 11.7382 1.1996L11.615 1.26406L4.39276 5.28199L4.16882 5.41091L4.12403 5.43239L1.75022 6.7538C1.06718 7.11906 1 7.74216 1 7.98926C1 8.23635 1.07838 8.85945 1.75022 9.23546L7.05771 12.2113C7.0801 12.1683 7.0913 12.1146 7.12489 12.0716L8.28941 10.1486L5.38932 8.50493C5.0534 8.32229 4.90784 7.94628 5.01981 7.6025C5.04221 7.35541 5.18777 7.11906 5.42291 6.9794L10.6184 4.10024C10.8984 3.94984 11.2343 3.97133 11.4806 4.13247C11.7494 4.26139 11.9397 4.52997 11.9397 4.84152V5.1853L10.3049 6.08772L7.28165 7.75291L10.3049 9.42884V7.81737L11.9397 6.91494V10.675C11.9397 10.8362 11.8837 10.9866 11.7941 11.1155C11.7941 11.1263 11.7829 11.137 11.7717 11.1477C11.5478 11.5237 11.0439 11.6527 10.652 11.4378L9.68906 10.9436L8.52455 12.8666C8.50215 12.9096 8.46856 12.9526 8.43497 12.9956L11.7494 14.8004C12.4212 15.1764 13.0258 14.9293 13.2498 14.8004C13.4737 14.6715 14 14.3062 14 13.5542L13.9888 13.5327Z"
    fill="#548AF7"/>
</svg>
